<?xml version="1.0" encoding="UTF-8"?>
<svg version="1.1" xmlns="http://www.w3.org/2000/svg" width="100" height="100">
<path d="M0 0 C33 0 66 0 100 0 C100 33 100 66 100 100 C67 100 34 100 0 100 C0 67 0 34 0 0 Z " fill="#FEBA6F" transform="translate(0,0)"/>
<path d="M0 0 C7.28907819 5.18308449 13.36184082 11.94957603 15 21 C15.90812508 33.65420198 14.43085635 42.02010971 6.3125 52 C5.52488281 52.9075 4.73726562 53.815 3.92578125 54.75 C1.97841221 56.8416409 1.97841221 56.8416409 1 59 C0.34 59 -0.32 59 -1 59 C-1.0825 59.61875 -1.165 60.2375 -1.25 60.875 C-2 63 -2 63 -3.9375 64.0625 C-4.618125 64.371875 -5.29875 64.68125 -6 65 C-6.66 65.99 -7.32 66.98 -8 68 C-9.97522846 69.04808041 -11.97481509 70.0520411 -14 71 C-14.33 71.33 -14.66 71.66 -15 72 C-17.50640219 72.26352359 -19.9867599 72.46821071 -22.5 72.625 C-23.20253906 72.6765625 -23.90507813 72.728125 -24.62890625 72.78125 C-26.41692241 72.89838401 -28.20874268 72.95396301 -30 73 C-30.495 72.505 -30.495 72.505 -31 72 C-32.47081904 71.63157566 -33.95207147 71.30421576 -35.4375 71 C-37.84329145 70.50571219 -39.80084246 70.09957877 -42 69 C-42 67.68 -42 66.36 -42 65 C-42.78375 64.773125 -43.5675 64.54625 -44.375 64.3125 C-47.65651118 62.67174441 -47.87345053 61.37964841 -49 58 C-49.66 57.67 -50.32 57.34 -51 57 C-51.59765625 54.671875 -51.59765625 54.671875 -52.0625 51.75 C-52.21847656 50.79609375 -52.37445313 49.8421875 -52.53515625 48.859375 C-52.68855469 47.91578125 -52.84195313 46.9721875 -53 46 C-53.22558594 45.20078125 -53.45117188 44.4015625 -53.68359375 43.578125 C-54.11796975 40.03876502 -53.0367007 37.39383071 -52 34 C-51.69224397 31.56688612 -51.42208733 29.12875495 -51.1875 26.6875 C-49.76886344 15.70660325 -45.71585331 7.95021083 -37 1 C-26.1361149 -5.8022511 -11.12161726 -6.77216831 0 0 Z " fill="#2C4E58" transform="translate(69,21)"/>
<path d="M0 0 C0.99 0.33 1.98 0.66 3 1 C2.34 2.98 1.68 4.96 1 7 C1.66 7.33 2.32 7.66 3 8 C3.4673896 9.66924857 3.92999557 11.34010363 4.359375 13.01953125 C5.04941543 15.152766 5.97952304 16.88858272 7.125 18.8125 C9 22 9 22 9 24 C9.53625 24.226875 10.0725 24.45375 10.625 24.6875 C13 26 13 26 15.8125 28.5 C21.02212402 32.93927861 27.44919116 33.26039255 34 34 C34.845625 34.20625 35.69125 34.4125 36.5625 34.625 C42.16598777 35.48707504 46.39724276 34.10997111 51 31 C51.66 30.731875 52.32 30.46375 53 30.1875 C55.10406809 28.93820957 56.10773009 27.76936916 57.625 25.875 C58.40875 24.92625 59.1925 23.9775 60 23 C60.66 23 61.32 23 62 23 C60.81759305 31.00939946 55.11268183 37.01085843 50 43 C49.505 43.99 49.505 43.99 49 45 C48.34 45 47.68 45 47 45 C46.9175 45.61875 46.835 46.2375 46.75 46.875 C46 49 46 49 44.0625 50.0625 C43.381875 50.371875 42.70125 50.68125 42 51 C41.34 51.99 40.68 52.98 40 54 C38.02477154 55.04808041 36.02518491 56.0520411 34 57 C33.67 57.33 33.34 57.66 33 58 C30.49359781 58.26352359 28.0132401 58.46821071 25.5 58.625 C24.79746094 58.6765625 24.09492187 58.728125 23.37109375 58.78125 C21.58307759 58.89838401 19.79125732 58.95396301 18 59 C17.505 58.505 17.505 58.505 17 58 C15.52918096 57.63157566 14.04792853 57.30421576 12.5625 57 C10.15670855 56.50571219 8.19915754 56.09957877 6 55 C6 53.68 6 52.36 6 51 C5.21625 50.773125 4.4325 50.54625 3.625 50.3125 C0.34348882 48.67174441 0.12654947 47.37964841 -1 44 C-1.66 43.67 -2.32 43.34 -3 43 C-3.59765625 40.671875 -3.59765625 40.671875 -4.0625 37.75 C-4.21847656 36.79609375 -4.37445312 35.8421875 -4.53515625 34.859375 C-4.68855469 33.91578125 -4.84195312 32.9721875 -5 32 C-5.33837891 30.80117187 -5.33837891 30.80117187 -5.68359375 29.578125 C-6.1185139 26.03433115 -5.0432527 23.39781607 -4 20 C-3.43303117 16.18083494 -2.99824157 12.35951954 -2.5625 8.5234375 C-2.05959523 5.37329791 -1.32551635 2.88299805 0 0 Z " fill="#27434D" transform="translate(21,35)"/>
<path d="M0 0 C2 1 2 1 2.7890625 3.1875 C3.06492187 4.115625 3.34078125 5.04375 3.625 6 C6.55608967 14.29757001 11.36822005 19.921389 19.1875 24 C29.1576749 28.63878897 38.90368611 27.66326433 49 24 C50.67798788 23.36236461 52.35293725 22.71372719 54 22 C53.505 23.485 53.505 23.485 53 25 C52.34 25 51.68 25 51 25 C50.9175 25.61875 50.835 26.2375 50.75 26.875 C50 29 50 29 48.0625 30.0625 C47.0415625 30.5265625 47.0415625 30.5265625 46 31 C45.34 31.99 44.68 32.98 44 34 C42.02477154 35.04808041 40.02518491 36.0520411 38 37 C37.67 37.33 37.34 37.66 37 38 C34.49359781 38.26352359 32.0132401 38.46821071 29.5 38.625 C28.79746094 38.6765625 28.09492187 38.728125 27.37109375 38.78125 C25.58307759 38.89838401 23.79125732 38.95396301 22 39 C21.505 38.505 21.505 38.505 21 38 C19.52918096 37.63157566 18.04792853 37.30421576 16.5625 37 C14.15670855 36.50571219 12.19915754 36.09957877 10 35 C10 33.68 10 32.36 10 31 C9.21625 30.773125 8.4325 30.54625 7.625 30.3125 C4.34348882 28.67174441 4.12654947 27.37964841 3 24 C2.34 23.67 1.68 23.34 1 23 C0.40234375 20.671875 0.40234375 20.671875 -0.0625 17.75 C-0.21847656 16.79609375 -0.37445312 15.8421875 -0.53515625 14.859375 C-0.68855469 13.91578125 -0.84195312 12.9721875 -1 12 C-1.20367187 11.13503906 -1.40734375 10.27007812 -1.6171875 9.37890625 C-2.17120272 5.93609741 -1.0865656 3.2596968 0 0 Z " fill="#61462F" transform="translate(17,55)"/>
<path d="M0 0 C0.66 0.33 1.32 0.66 2 1 C2.16921227 5.06109457 2.09619896 7.70634003 0.8125 11.625 C-1.19870894 18.81190747 2.01960803 27.40874852 5 34 C6.91786417 36.15759719 8.41878928 37.70939464 11 39 C11 40.32 11 41.64 11 43 C12.12148438 43.19916016 12.12148438 43.19916016 13.265625 43.40234375 C14.25046875 43.57894531 15.2353125 43.75554687 16.25 43.9375 C17.22453125 44.11152344 18.1990625 44.28554687 19.203125 44.46484375 C22 45 22 45 23.984375 45.58203125 C26.73053805 46.15148754 29.20753573 45.95943482 32 45.75 C33.546875 45.64945313 33.546875 45.64945313 35.125 45.546875 C38.2534591 44.95178767 39.59470973 44.01132032 42 42 C42.99 41.67 43.98 41.34 45 41 C45.495 40.319375 45.99 39.63875 46.5 38.9375 C46.995 38.298125 47.49 37.65875 48 37 C48.99 37 49.98 37 51 37 C51.33 35.68 51.66 34.36 52 33 C52.66 33 53.32 33 54 33 C54.20625 32.319375 54.4125 31.63875 54.625 30.9375 C56.45408866 27.02990149 59.10279034 24.16142061 62 21 C62.99 21.99 62.99 21.99 64 23 C53.64081457 42.40620738 53.64081457 42.40620738 46 47 C42.30460288 48.10340305 38.68103733 48.85513903 34.87890625 49.4921875 C32.11240121 49.69642354 32.11240121 49.69642354 31 51 C25.21461003 51.83981467 20.66583383 52.32812267 15 50.625 C13.700625 50.24214844 13.700625 50.24214844 12.375 49.8515625 C10 49 10 49 7 47 C6.505 45.515 6.505 45.515 6 44 C4.67153246 43.32368925 3.33785449 42.65754663 2 42 C-4.22981865 32.18331607 -6.64611615 19.12630861 -4.1875 7.75 C-3.14526567 4.4587337 -2.29911713 2.50812777 0 0 Z " fill="#F2A562" transform="translate(16,47)"/>
<path d="M0 0 C2 3 2 3 2.3125 6.625 C3.08848665 14.01729388 7.40266856 20.2931531 13 25 C22.64353621 32.53401267 31.85334466 34.07221422 44 33 C46.80466574 32.20366745 49.30987518 31.14579391 52 30 C52.99 30.33 53.98 30.66 55 31 C47.63890959 36.92087707 40.02325989 39.63919786 30.5078125 39.28125 C20.00357675 38.10320487 11.9159657 33.24878513 5.3203125 25.03125 C0.19338372 17.14366726 -0.57815749 9.20234008 0 0 Z " fill="#1C333B" transform="translate(18,44)"/>
<path d="M0 0 C0.33 0 0.66 0 1 0 C0.85769192 1.41702513 0.71099254 2.8336096 0.5625 4.25 C0.48128906 5.03890625 0.40007813 5.8278125 0.31640625 6.640625 C0 9 0 9 -0.6171875 10.89453125 C-1.17605036 13.968277 -0.42385899 16.41877715 0.3125 19.4375 C0.57675781 20.54996094 0.84101563 21.66242188 1.11328125 22.80859375 C2.56066846 28.01791247 3.87980227 31.39482699 8 35 C8.66 35.33 9.32 35.66 10 36 C10 37.32 10 38.64 10 40 C10.74765625 40.13277344 11.4953125 40.26554687 12.265625 40.40234375 C13.25046875 40.57894531 14.2353125 40.75554687 15.25 40.9375 C16.22453125 41.11152344 17.1990625 41.28554687 18.203125 41.46484375 C21 42 21 42 22.984375 42.58203125 C25.73053805 43.15148754 28.20753573 42.95943482 31 42.75 C32.546875 42.64945313 32.546875 42.64945313 34.125 42.546875 C37.2534591 41.95178767 38.59470973 41.01132032 41 39 C41.99 38.67 42.98 38.34 44 38 C44.495 37.319375 44.99 36.63875 45.5 35.9375 C45.995 35.298125 46.49 34.65875 47 34 C47.99 34 48.98 34 50 34 C50.33 32.68 50.66 31.36 51 30 C51.66 30 52.32 30 53 30 C53.268125 29.21625 53.53625 28.4325 53.8125 27.625 C55 25 55 25 58 23 C54.84033613 33.48739496 54.84033613 33.48739496 52 36 C49.3125 36.25 49.3125 36.25 47 36 C46.86271484 36.92039062 46.86271484 36.92039062 46.72265625 37.859375 C46 40 46 40 44.43359375 41.265625 C39.33699101 43.77901813 35.67528491 44.40537749 30 44 C30 44.66 30 45.32 30 46 C16.41975309 46.40740741 16.41975309 46.40740741 10 44 C7.5 41.5 7.5 41.5 6 39 C6 38.34 6 37.68 6 37 C5.01 36.67 4.02 36.34 3 36 C2.33333333 34.33333333 1.66666667 32.66666667 1 31 C0.01 30.67 -0.98 30.34 -2 30 C-2.53107314 27.25162151 -3.05015881 24.50187625 -3.5625 21.75 C-3.71396484 20.97269531 -3.86542969 20.19539063 -4.02148438 19.39453125 C-4.2293457 18.26337891 -4.2293457 18.26337891 -4.44140625 17.109375 C-4.57232666 16.41811523 -4.70324707 15.72685547 -4.83813477 15.01464844 C-5.01710362 12.78712058 -4.65206197 11.12493038 -4 9 C-3.34 9 -2.68 9 -2 9 C-1.7834375 7.0509375 -1.7834375 7.0509375 -1.5625 5.0625 C-1.125 1.125 -1.125 1.125 0 0 Z " fill="#CE8851" transform="translate(17,50)"/>
<path d="M0 0 C2.36759649 2.96645913 4.05900632 5.98351267 5.75 9.375 C8.48700132 14.46284157 11.30976062 17.69551316 16 21 C16.99 21.763125 17.98 22.52625 19 23.3125 C22.47570739 25.26758541 25.04621124 25.59791979 29 26 C30.46097476 26.36457352 31.91922969 26.74017028 33.375 27.125 C38.0235298 28.19161471 42.36125905 28.15502787 47 27 C47.99 26.34 48.98 25.68 50 25 C50.99 25 51.98 25 53 25 C53 24.34 53 23.68 53 23 C54.63064764 21.94228261 56.30280873 20.94726954 58 20 C58.99 19.34 59.98 18.68 61 18 C59.67280211 21.98159366 58.18066801 24.2644084 55 27 C45.57425663 31.35034309 33.78443834 33.2467328 23.75 29.875 C22.48100849 29.28952109 21.2315349 28.66064119 20 28 C19.17757812 27.58621094 18.35515625 27.17242187 17.5078125 26.74609375 C8.44346647 21.81046319 3.23444308 14.77768424 0 5 C-0.25 1.9375 -0.25 1.9375 0 0 Z " fill="#233D46" transform="translate(19,47)"/>
<path d="M0 0 C1.56197295 2.34295943 3.10846459 4.69014198 4.625 7.0625 C5.07101563 7.75472656 5.51703125 8.44695312 5.9765625 9.16015625 C7 11 7 11 7 13 C7.66 13 8.32 13 9 13 C9.70125 13.7425 10.4025 14.485 11.125 15.25 C17.91379766 21.74363254 25.1607285 23.17959009 34.3125 23.1875 C35.04662109 23.19974609 35.78074219 23.21199219 36.53710938 23.22460938 C41.40201004 23.23755942 45.38368574 22.54283687 50 21 C46.0325682 25.55425451 40.29485141 26.61806205 34.47265625 27.29296875 C24.51248141 27.62340109 16.33460209 24.73521525 9 18 C4.71355724 13.77187619 1.93940584 9.71047274 0 4 C0 2.68 0 1.36 0 0 Z " fill="#0D1B22" transform="translate(19,56)"/>
<path d="M0 0 C0 3.20663489 -0.62012712 4.74646994 -1.9375 7.625 C-2.29714844 8.42164062 -2.65679687 9.21828125 -3.02734375 10.0390625 C-4 12 -4 12 -5 13 C-6.66617115 13.04063832 -8.33388095 13.042721 -10 13 C-10.09152344 13.61488281 -10.18304688 14.22976562 -10.27734375 14.86328125 C-11 17 -11 17 -12.56640625 18.23046875 C-17.33471541 20.51664438 -21.6831635 21.77561974 -27 22 C-27.79535156 22.03996094 -28.59070313 22.07992187 -29.41015625 22.12109375 C-34.92553552 22.26601098 -40.84984122 22.1938034 -46 20 C-46.33 19.01 -46.66 18.02 -47 17 C-45.24970238 17.31082872 -43.49977306 17.62373179 -41.75 17.9375 C-40.28820313 18.19853516 -40.28820313 18.19853516 -38.796875 18.46484375 C-36 19 -36 19 -34.015625 19.58203125 C-31.26946195 20.15148754 -28.79246427 19.95943482 -26 19.75 C-24.453125 19.64945313 -24.453125 19.64945313 -22.875 19.546875 C-19.7465409 18.95178767 -18.40529027 18.01132032 -16 16 C-15.01 15.67 -14.02 15.34 -13 15 C-12.505 14.319375 -12.01 13.63875 -11.5 12.9375 C-11.005 12.298125 -10.51 11.65875 -10 11 C-9.01 11 -8.02 11 -7 11 C-6.67 9.68 -6.34 8.36 -6 7 C-5.34 7 -4.68 7 -4 7 C-3.71125 6.21625 -3.4225 5.4325 -3.125 4.625 C-2 2 -2 2 0 0 Z " fill="#BC7C4A" transform="translate(74,73)"/>
<path d="M0 0 C0.66 0.66 1.32 1.32 2 2 C-8.10156067 20.92359033 -8.10156067 20.92359033 -16 26 C-16.99 25.67 -17.98 25.34 -19 25 C-18.278125 24.608125 -17.55625 24.21625 -16.8125 23.8125 C-10.91506954 20.0119337 -8.1412399 15.72657675 -5.203125 9.515625 C-3.63437002 6.23550094 -1.83980126 3.13447623 0 0 Z " fill="#FEB069" transform="translate(78,68)"/>
<path d="M0 0 C0.33 0 0.66 0 1 0 C0.85769192 1.41702513 0.71099254 2.8336096 0.5625 4.25 C0.48128906 5.03890625 0.40007813 5.8278125 0.31640625 6.640625 C0 9 0 9 -0.62890625 10.8828125 C-1.1804339 14.02942286 -0.30356059 16.5562298 0.5 19.625 C2.10635155 25.7872969 2.10635155 25.7872969 1 28 C0 27 0 27 -0.0625 24.4375 C-0.041875 23.633125 -0.02125 22.82875 0 22 C-0.66 22 -1.32 22 -2 22 C-3.03335117 13.94484091 -3.42546443 7.48957478 0 0 Z " fill="#A97043" transform="translate(17,50)"/>
<path d="M0 0 C1.75029762 0.31082872 3.50022694 0.62373179 5.25 0.9375 C6.71179687 1.19853516 6.71179687 1.19853516 8.203125 1.46484375 C11 2 11 2 12.984375 2.5859375 C15.73540847 3.15107228 18.20618632 2.9214819 21 2.6875 C22.546875 2.56955078 22.546875 2.56955078 24.125 2.44921875 C26.84188191 2.02470595 28.64983902 1.38410923 31 0 C30 1.9375 30 1.9375 28 4 C25.19258081 4.59103562 22.83373269 4.88953245 20 5 C18.79730469 5.05994141 18.79730469 5.05994141 17.5703125 5.12109375 C12.06165285 5.26696168 6.14351966 5.19097534 1 3 C0.67 2.01 0.34 1.02 0 0 Z " fill="#9D683E" transform="translate(27,90)"/>
<path d="M0 0 C0.33 0 0.66 0 1 0 C2.10228696 4.40914783 2.07654536 8.48382401 2 13 C2.66 13 3.32 13 4 13 C4.99 16.96 5.98 20.92 7 25 C6.34 24.67 5.68 24.34 5 24 C5 23.34 5 22.68 5 22 C4.01 21.67 3.02 21.34 2 21 C1.46892686 18.25162151 0.94984119 15.50187625 0.4375 12.75 C0.28603516 11.97269531 0.13457031 11.19539063 -0.02148438 10.39453125 C-0.2293457 9.26337891 -0.2293457 9.26337891 -0.44140625 8.109375 C-0.63778687 7.07248535 -0.63778687 7.07248535 -0.83813477 6.01464844 C-1.01710362 3.78712058 -0.65206197 2.12493038 0 0 Z " fill="#D99055" transform="translate(13,59)"/>
<path d="M0 0 C0.66 0.33 1.32 0.66 2 1 C1.01 4.63 0.02 8.26 -1 12 C-1.66 12 -2.32 12 -3 12 C-3.75 9.375 -3.75 9.375 -4 6 C-2.0625 2.625 -2.0625 2.625 0 0 Z " fill="#F4A763" transform="translate(16,47)"/>
<path d="M0 0 C0.66 0.66 1.32 1.32 2 2 C1.40844669 3.31823302 0.80128537 4.62947051 0.1875 5.9375 C-0.31716797 7.03384766 -0.31716797 7.03384766 -0.83203125 8.15234375 C-2 10 -2 10 -5 11 C-4.32902328 6.80639551 -2.1441606 3.59665648 0 0 Z " fill="#F5A864" transform="translate(78,68)"/>
<path d="M0 0 C0.66 0 1.32 0 2 0 C2.680625 1.175625 2.680625 1.175625 3.375 2.375 C5.07651113 5.1235949 6.04519084 5.87921032 9 7 C8.67 8.32 8.34 9.64 8 11 C7.67 10.34 7.34 9.68 7 9 C6.195625 8.773125 5.39125 8.54625 4.5625 8.3125 C2 7 2 7 0.6875 3.375 C0.460625 2.26125 0.23375 1.1475 0 0 Z " fill="#9E693F" transform="translate(18,79)"/>
<path d="M0 0 C-2.95183101 2.95183101 -5.95511947 3.08663988 -10 4 C-10 3.34 -10 2.68 -10 2 C-3.375 -1.125 -3.375 -1.125 0 0 Z " fill="#192F36" transform="translate(73,75)"/>
</svg>
